<svg xmlns="http://www.w3.org/2000/svg" width="42.804" height="42.865" viewBox="0 0 42.804 42.865"><defs><style>.a{fill:#e0ebdf;}</style></defs><g transform="translate(-3.599 -3.568)"><path class="a" d="M25,46.433a21.441,21.441,0,0,1-21.4-21.4A21.386,21.386,0,0,1,9.879,9.848,21.133,21.133,0,0,1,25,3.568a21.433,21.433,0,1,1,0,42.865ZM22.622,21.8H19.451v3.964h3.171V35.4h3.964V25.763h3.963V21.8H26.586V19.787c0-.671.365-1.22.791-1.22h3.172v-3.9H27.377a4.983,4.983,0,0,0-4.755,5.183V21.8Z"/></g></svg>