<svg xmlns="http://www.w3.org/2000/svg" width="43" height="43" viewBox="0 0 43 43"><defs><style>.a{fill:#e0ebdf;}</style></defs><g transform="translate(-1.3 -0.7)"><path class="a" d="M-924.2-4593.3a21.365,21.365,0,0,1-8.369-1.689,21.434,21.434,0,0,1-6.834-4.608,21.431,21.431,0,0,1-4.608-6.834,21.366,21.366,0,0,1-1.69-8.369,21.37,21.37,0,0,1,1.69-8.369A21.416,21.416,0,0,1-939.4-4630a21.429,21.429,0,0,1,6.834-4.608,21.365,21.365,0,0,1,8.369-1.689,21.365,21.365,0,0,1,8.369,1.689A21.424,21.424,0,0,1-909-4630a21.416,21.416,0,0,1,4.608,6.833,21.37,21.37,0,0,1,1.69,8.369,21.366,21.366,0,0,1-1.69,8.369A21.431,21.431,0,0,1-909-4599.6a21.434,21.434,0,0,1-6.834,4.608A21.365,21.365,0,0,1-924.2-4593.3Zm-1.9-14.788c-.008.033-.751,2.941-.958,3.65a16.976,16.976,0,0,1-1.914,4.039,15.262,15.262,0,0,0,4.546.688,15.365,15.365,0,0,0,15.349-15.347,15.325,15.325,0,0,0-4.514-10.85,15.26,15.26,0,0,0-10.864-4.5,15.365,15.365,0,0,0-15.347,15.349,15.261,15.261,0,0,0,2.734,8.744,15.36,15.36,0,0,0,7.019,5.558,15.153,15.153,0,0,1,.059-4.4c.245-1.087,1.533-6.522,1.789-7.6l.007-.028a5.76,5.76,0,0,1-.449-2.273c0-2.1,1.209-3.74,2.753-3.74a1.82,1.82,0,0,1,1.466.64,2.355,2.355,0,0,1,.479,1.514,12.039,12.039,0,0,1-.684,3.073l0,.009c-.2.67-.416,1.363-.57,2.034a2.179,2.179,0,0,0,.385,1.892,2.376,2.376,0,0,0,1.889.859c2.791,0,4.817-2.957,4.817-7.03a6.2,6.2,0,0,0-1.8-4.5,6.511,6.511,0,0,0-4.6-1.757,6.877,6.877,0,0,0-5.109,2.057,6.723,6.723,0,0,0-1.832,4.614,5.751,5.751,0,0,0,1.167,3.5.494.494,0,0,1,.12.448c-.053.211-.129.533-.2.844l0,.013c-.093.392-.18.763-.213.878-.041.184-.135.282-.274.282a.5.5,0,0,1-.234-.072c-1.948-.912-3.111-3.743-3.111-5.953a9.046,9.046,0,0,1,2.591-6.455,10.37,10.37,0,0,1,7.55-2.82,9.79,9.79,0,0,1,6.725,2.532,8.546,8.546,0,0,1,2.73,6.324,10.634,10.634,0,0,1-2.251,6.746,7.3,7.3,0,0,1-5.707,2.8,4.158,4.158,0,0,1-3.53-1.765Z" transform="translate(947 4637)"/></g></svg>