<svg xmlns="http://www.w3.org/2000/svg" width="42.865" height="42.865" viewBox="0 0 42.865 42.865"><defs><style>.a{fill:#e0ebdf;}</style></defs><g transform="translate(0.01)"><path class="a" d="M21.423,0A21.433,21.433,0,1,0,42.855,21.424,21.433,21.433,0,0,0,21.423,0ZM23.3,12.183a2.323,2.323,0,0,0-1.871-.87h-.226A2.611,2.611,0,0,0,18.7,13.349a.748.748,0,0,1-.583.644l-3.263-.409a.548.548,0,0,1-.47-.7c.7-3.672,3.846-4.951,6.814-5.125h.7a7.832,7.832,0,0,1,5.073,1.706c1.636,1.514,1.462,3.55,1.462,5.761v5.221a4.351,4.351,0,0,0,1.279,3.089.635.635,0,0,1-.061.87c-.635.583-1.862,1.627-2.558,2.21a.87.87,0,0,1-.818.061A9.137,9.137,0,0,1,24.364,24.5a7.223,7.223,0,0,1-3.15,2.158,9.572,9.572,0,0,1-2.384.287c-2.793,0-5.012-1.74-5.012-5.221A5.613,5.613,0,0,1,17.4,16.281,12.974,12.974,0,0,1,21.2,15.35c.87-.122,1.74-.174,2.5-.235v-.461a4.438,4.438,0,0,0-.392-2.471Zm8.824,18.361a10.441,10.441,0,0,1-1.062.783h0a19.362,19.362,0,0,1-9.441,2.863h-.3c-4.934,0-8.606-2.706-11.948-5.6a.714.714,0,0,1-.278-.548.609.609,0,0,1,.191-.444.644.644,0,0,1,.444-.165.748.748,0,0,1,.374.1c3.568,1.975,7.1,3.985,11.426,3.985h.3a24.652,24.652,0,0,0,8.563-1.923h0l.261-.1.2-.087.426-.174a.87.87,0,0,1,.392-.1.783.783,0,0,1,.8.757.818.818,0,0,1-.348.679Zm1.619,1.2a.87.87,0,0,1-.487.183h0a.548.548,0,0,1-.392-.157.54.54,0,0,1-.165-.409.766.766,0,0,1,.044-.252c.131-.339.322-.87.479-1.357a4.638,4.638,0,0,0,.278-1.3v-.148h0l-.157-.052a2.341,2.341,0,0,0-.592,0,6.674,6.674,0,0,0-1.088.061c-.365.061-.783.1-1.036.148h-.174a.627.627,0,0,1-.392-.131.54.54,0,0,1-.191-.418.731.731,0,0,1,.331-.574,4.577,4.577,0,0,1,.922-.522h0l.287-.087h0l.513-.174h0a6.7,6.7,0,0,1,1.462-.157,4.351,4.351,0,0,1,1.514.218.948.948,0,0,1,.357.226h0a1.236,1.236,0,0,1,.183.661v.165a5.961,5.961,0,0,1-1.7,4.09Z"/><path class="a" d="M26.493,20.45a11.434,11.434,0,0,0-2.5.235,3.072,3.072,0,0,0-2.506,3.15c0,1.453.757,2.445,2.036,2.445.174,0,.348-.061.47-.061A2.8,2.8,0,0,0,25.858,24.7a6.187,6.187,0,0,0,.635-3.55Z" transform="translate(-2.791 -2.654)"/></g></svg>