<svg xmlns="http://www.w3.org/2000/svg" width="43" height="43" viewBox="0 0 43 43"><defs><style>.a{fill:#e0ebdf;}</style></defs><g transform="translate(-1.099 -1.5)"><path class="a" d="M-796.4-4592.5a21.363,21.363,0,0,1-8.368-1.689,21.434,21.434,0,0,1-6.834-4.608,21.432,21.432,0,0,1-4.608-6.834A21.363,21.363,0,0,1-817.9-4614a21.367,21.367,0,0,1,1.69-8.369,21.418,21.418,0,0,1,4.608-6.833,21.433,21.433,0,0,1,6.834-4.608,21.363,21.363,0,0,1,8.368-1.689,21.365,21.365,0,0,1,8.369,1.689,21.433,21.433,0,0,1,6.834,4.608,21.422,21.422,0,0,1,4.608,6.833A21.365,21.365,0,0,1-774.9-4614a21.365,21.365,0,0,1-1.69,8.369,21.431,21.431,0,0,1-4.608,6.834,21.435,21.435,0,0,1-6.834,4.608A21.365,21.365,0,0,1-796.4-4592.5Zm.151-33.709c-2.631,0-3.384.021-4.257.044l-.653.017a7.817,7.817,0,0,0-2.9.579,5.689,5.689,0,0,0-2.1,1.372,5.709,5.709,0,0,0-1.372,2.1,8.573,8.573,0,0,0-.549,2.9c-.06,1.25-.06,1.666-.06,4.909,0,2.657.02,3.4.044,4.267.005.2.011.407.017.644a8.6,8.6,0,0,0,.549,2.9,5.7,5.7,0,0,0,1.372,2.1,5.692,5.692,0,0,0,2.1,1.373,8.58,8.58,0,0,0,2.9.549l.5.013.164,0c.865.024,1.611.045,4.249.045s3.385-.021,4.25-.045l.164,0,.5-.013a8.585,8.585,0,0,0,2.9-.549,5.686,5.686,0,0,0,2.1-1.373,5.689,5.689,0,0,0,1.373-2.1,8.594,8.594,0,0,0,.549-2.9c.062-1.281.062-1.694.062-4.911,0-3.243,0-3.66-.031-4.939a8.546,8.546,0,0,0-.549-2.9,5.689,5.689,0,0,0-1.372-2.1,5.679,5.679,0,0,0-2.1-1.373,8.568,8.568,0,0,0-2.9-.549C-792.589-4626.209-793.006-4626.209-796.249-4626.209Zm0,21.651c-2.612,0-3.341-.02-4.185-.043l-.11,0-.522-.014a7.432,7.432,0,0,1-2.227-.4,4.058,4.058,0,0,1-1.372-.884,3.785,3.785,0,0,1-.884-1.372,6.39,6.39,0,0,1-.4-2.227l-.013-.259c-.053-1.042-.079-1.565-.079-4.53,0-2.595.021-3.327.045-4.175.006-.2.011-.4.017-.642a7.5,7.5,0,0,1,.4-2.227,4.078,4.078,0,0,1,.885-1.372,3.788,3.788,0,0,1,1.373-.885,6.412,6.412,0,0,1,2.226-.4l.34-.016c1.069-.05,1.6-.076,4.507-.076,2.6,0,3.335.021,4.181.044l.638.017a7.381,7.381,0,0,1,2.226.4,4.028,4.028,0,0,1,1.373.885,3.786,3.786,0,0,1,.885,1.372,6.443,6.443,0,0,1,.4,2.226c.062,1.25.062,1.588.062,4.82,0,2.593-.021,3.326-.045,4.175v.042c-.005.186-.011.379-.016.6a7.488,7.488,0,0,1-.4,2.227,4.078,4.078,0,0,1-.885,1.372,3.765,3.765,0,0,1-1.373.884,6.4,6.4,0,0,1-2.225.4C-792.68-4604.559-793.018-4604.559-796.249-4604.559Zm0-15.856a6.045,6.045,0,0,0-4.318,1.794,6.109,6.109,0,0,0-1.78,4.334,6.137,6.137,0,0,0,6.13,6.13,6.121,6.121,0,0,0,6.1-6.13,6.088,6.088,0,0,0-1.8-4.322A6.082,6.082,0,0,0-796.249-4620.415Zm6.344-1.677a1.435,1.435,0,0,0-1.433,1.433,1.435,1.435,0,0,0,1.433,1.433,1.435,1.435,0,0,0,1.433-1.433A1.418,1.418,0,0,0-789.906-4622.092Zm-6.344,11.771a4,4,0,0,1-3.994-3.995,4,4,0,0,1,3.994-4,3.975,3.975,0,0,1,2.832,1.163,3.974,3.974,0,0,1,1.162,2.832A4,4,0,0,1-796.249-4610.322Z" transform="translate(819 4637)"/></g></svg>